# xmcd
# Track frame offsets:
# 150
# 18107
# 36082
# 53802
# 68713
# 86387
# 105195
# 122544
# 136041
# 152431
# 172431
# 182562
#
# Disc length: 2620 seconds
# Revision: 0
# Processed by: cddbd v1.5.2PL0 Copyright (c) Steve Scherf et al.
# Submitted via: VisiTrax 2.10.2.252 - For more info visit www.synapsa.com
#
DISCID=880a3a0c
DTITLE=Wentus Blues Band - Agriculture
DYEAR=2007
DGENRE=Blues
TTITLE0=Down the line
TTITLE1=Take It away
TTITLE2=Biscuit roller
TTITLE3=Times getting hard
TTITLE4=Passenger blues
TTITLE5=Devil´s turning up the heart
TTITLE6=Explorer boogie
TTITLE7=Country love
TTITLE8=Brand new mojo hand
TTITLE9=Here In the night
TTITLE10=Love bug
TTITLE11=My kind of people
EXTD=
EXTT0=
EXTT1=
EXTT2=
EXTT3=
EXTT4=
EXTT5=
EXTT6=
EXTT7=
EXTT8=
EXTT9=
EXTT10=
EXTT11=
PLAYORDER=
